<svg width="640" height="640" xmlns="http://www.w3.org/2000/svg">
 <!--!Font Awesome Free 7.1.0 by @fontawesome - https://fontawesome.com License - https://fontawesome.com/license/free Copyright 2025 Fonticons, Inc.-->

 <g>
  <title>Layer 1</title>
  <g id="svg_2">
   <!--!Font Awesome Free 7.1.0 by @fontawesome - https://fontawesome.com License - https://fontawesome.com/license/free Copyright 2025 Fonticons, Inc.-->
   <path id="svg_3" d="m244.49737,150.1685l0,75.50001l151.00002,0l0,-75.50001c0,-41.64297 -33.85703,-75.50001 -75.50001,-75.50001c-41.64297,0 -75.50001,33.85703 -75.50001,75.50001zm-75.50001,75.50001l0,-75.50001c0,-83.40392 67.5961,-151.00002 151.00002,-151.00002c83.40392,0 151.00002,67.5961 151.00002,151.00002l0,75.50001c41.64297,0 75.50001,33.85703 75.50001,75.50001l0,264.25003c0,41.64297 -33.85703,75.50001 -75.50001,75.50001l-302.00002,0c-41.64297,0 -75.50001,-33.85703 -75.50001,-75.50001l0,-264.25003c0,-41.64297 33.85703,-75.50001 75.50001,-75.50001l-0.00001,0z" fill="#bd93f9"/>
  </g>
  <path stroke-opacity="0" stroke="#000000" id="svg_1" d="m277.90174,255.34664c6.17019,-5.175 15.25962,-4.97596 21.16442,0.59712c8.16057,7.69615 15.45866,16.18847 22.49135,24.81347c8.95673,10.94712 19.70481,25.41057 30.05481,42.59424c3.45,-4.51154 6.63462,-8.49231 9.42116,-11.87597c0.72981,-0.8625 1.45961,-1.79134 2.18942,-2.72019c5.24135,-6.50192 11.74327,-14.6625 20.43462,-14.6625c8.89039,0 15.12692,7.89519 20.43462,14.6625c0.8625,1.12788 1.725,2.18942 2.5875,3.18462c6.83366,8.22692 15.92308,20.10289 25.01251,34.76539c18.04616,29.12597 36.88846,70.59231 36.88846,117.16732c0,82.0702 -66.5452,148.61539 -148.61539,148.61539c-82.0702,0 -148.54905,-66.47885 -148.54905,-148.54905c0,-60.44135 27.26828,-112.78847 53.40866,-149.27886c13.20289,-18.37789 26.33942,-33.10673 36.225,-43.19135c5.44039,-5.57307 10.94712,-11.07981 16.91827,-16.05577l-0.06635,-0.06635l-0.00001,-0.00001zm43.25769,293.5154c16.78557,0 31.64712,-4.64423 45.64615,-13.9327c27.93173,-19.50577 35.42885,-58.51731 18.64328,-89.16923c-2.98558,-5.97115 -10.61538,-6.36923 -14.92788,-1.32692l-16.71923,19.43942c-4.37885,5.04231 -12.27404,4.90962 -16.38751,-0.33173c-11.47789,-14.6625 -32.57596,-41.4 -43.32404,-55.06731c-3.58269,-4.57789 -10.08461,-5.3077 -14.26443,-1.26057c-12.14134,11.80962 -34.16827,37.68462 -34.16827,69.19904c0,45.51346 33.57116,72.45 75.43559,72.45l0.06635,0l-0.00001,0z" fill="#ffffff"/>
 </g>
</svg>